<?xml version="1.0" encoding="UTF-8"?>
<svg version="1.1" xmlns="http://www.w3.org/2000/svg" width="204" height="192">
<path d="M0 0 C67.32 0 134.64 0 204 0 C204 63.36 204 126.72 204 192 C136.68 192 69.36 192 0 192 C0 128.64 0 65.28 0 0 Z " fill="#CB202D" transform="translate(0,0)"/>
<path d="M0 0 C3.65528009 1.85995588 5.73720949 4.60581424 8 8 C8.75382467 12.60183667 8.39969844 16.1698571 6.375 20.375 C2.76076668 24.36967893 -0.64440226 26.1206612 -6 26.4375 C-10.24630623 26.25887909 -12.76068611 24.7873166 -16 22 C-19.10432211 18.37829088 -19.62813077 14.93365886 -19.49609375 10.2890625 C-18.62408526 6.26546427 -16.04201594 3.64797243 -13 1 C-9.0351325 -0.98243375 -4.31035114 -0.55323266 0 0 Z " fill="#F9EBEC" transform="translate(62,84)"/>
<path d="M0 0 C4.4125235 2.1661479 7.09058512 4.43862 9 9 C9.78139185 15.02788002 8.4148269 18.20078382 5 23 C1.55101827 25.96995649 -1.4675015 26.48198675 -6.01171875 26.28515625 C-10.31741595 25.66763976 -13.15243689 23.73604165 -16.375 20.9375 C-18.76230021 16.62199578 -19.01842822 12.81506871 -18 8 C-13.51957318 0.41878999 -8.47814517 -0.93767504 0 0 Z " fill="#F9ECED" transform="translate(179,84)"/>
<path d="M0 0 C2.5 1.5 2.5 1.5 4 3 C4.33 2.505 4.66 2.01 5 1.5 C7.60648578 -0.45486434 9.80261468 -0.41449854 12.99609375 -0.296875 C15.85690359 0.12694868 17.74742081 1.22524064 20 3 C21.20029908 5.40059817 21.11459743 6.89360649 21.09765625 9.5703125 C21.09443359 10.46621094 21.09121094 11.36210938 21.08789062 12.28515625 C21.07532227 13.69087891 21.07532227 13.69087891 21.0625 15.125 C21.05798828 16.06988281 21.05347656 17.01476562 21.04882812 17.98828125 C21.03702357 20.32558387 21.02055759 22.66276061 21 25 C19.02 25 17.04 25 15 25 C14.93941406 23.71222656 14.87882812 22.42445312 14.81640625 21.09765625 C14.73201753 19.41925841 14.6473687 17.74087364 14.5625 16.0625 C14.52318359 15.21236328 14.48386719 14.36222656 14.44335938 13.48632812 C14.40146484 12.67744141 14.35957031 11.86855469 14.31640625 11.03515625 C14.27974854 10.2862915 14.24309082 9.53742676 14.20532227 8.76586914 C14.18228937 6.97538674 14.18228937 6.97538674 13 6 C11.00041636 5.95919217 8.99954746 5.95745644 7 6 C5.88176185 8.23647631 5.80603939 9.64891529 5.68359375 12.1328125 C5.64169922 12.93847656 5.59980469 13.74414062 5.55664062 14.57421875 C5.51732422 15.41597656 5.47800781 16.25773437 5.4375 17.125 C5.39431641 17.97449219 5.35113281 18.82398437 5.30664062 19.69921875 C5.20045764 21.79928223 5.09971503 23.89961948 5 26 C3.02 26 1.04 26 -1 26 C-1.33 19.4 -1.66 12.8 -2 6 C-4.31 6 -6.62 6 -9 6 C-12.02093215 9.02093215 -11.46676834 12.56372072 -11.625 16.625 C-11.66367188 17.42679688 -11.70234375 18.22859375 -11.7421875 19.0546875 C-11.83653931 21.03607556 -11.91936215 23.01800645 -12 25 C-13.65 25 -15.3 25 -17 25 C-17 17.08 -17 9.16 -17 1 C-15.35 1 -13.7 1 -12 1 C-12 1.66 -12 2.32 -12 3 C-11.34 3 -10.68 3 -10 3 C-10 2.34 -10 1.68 -10 1 C-6.82253509 -0.58873246 -3.45987798 -0.41026221 0 0 Z " fill="#FAEDEE" transform="translate(92,84)"/>
<path d="M0 0 C3.74030185 1.60298651 4.73158465 2.59737698 7 6 C7.22705078 8.17651367 7.22705078 8.17651367 7.1953125 10.66796875 C7.18886719 11.56064453 7.18242187 12.45332031 7.17578125 13.37304688 C7.15902344 14.30181641 7.14226562 15.23058594 7.125 16.1875 C7.11597656 17.12787109 7.10695312 18.06824219 7.09765625 19.03710938 C7.07409056 21.35832968 7.04119116 23.67903644 7 26 C5.02 26 3.04 26 1 26 C0.67 25.34 0.34 24.68 0 24 C-0.66 24 -1.32 24 -2 24 C-2 24.66 -2 25.32 -2 26 C-6.84435994 26.47493725 -9.9563259 26.72418203 -14.0625 23.875 C-16 21 -16 21 -16.625 18 C-16 15 -16 15 -14.25 12.125 C-9.36267442 8.92944097 -4.68050025 9.59230859 1 10 C0.67 9.01 0.34 8.02 0 7 C-2.64458379 5.67770811 -4.67761301 5.90322806 -7.625 5.9375 C-9.12933594 5.95103516 -9.12933594 5.95103516 -10.6640625 5.96484375 C-11.82035156 5.98224609 -11.82035156 5.98224609 -13 6 C-13 4.35 -13 2.7 -13 1 C-9.07979559 -0.96010221 -4.28388424 -0.3528633 0 0 Z " fill="#F8E4E6" transform="translate(133,84)"/>
<path d="M0 0 C7.26 0 14.52 0 22 0 C22 1.65 22 3.3 22 5 C21.34 5 20.68 5 20 5 C19.66355469 5.81210938 19.66355469 5.81210938 19.3203125 6.640625 C17.58851134 9.73532294 15.28380732 12.17925605 12.875 14.75 C12.40707031 15.25660156 11.93914063 15.76320313 11.45703125 16.28515625 C10.30873459 17.52719141 9.15491328 18.76411494 8 20 C14.93 20.495 14.93 20.495 22 21 C22 22.32 22 23.64 22 25 C14.74 25 7.48 25 0 25 C0 19.375 0 19.375 2.84375 16.44921875 C3.43027344 15.83369141 4.01679688 15.21816406 4.62109375 14.58398438 C5.24113281 13.95814453 5.86117188 13.33230469 6.5 12.6875 C7.12003906 12.04232422 7.74007813 11.39714844 8.37890625 10.73242188 C9.90824809 9.1442592 11.45270387 7.5706756 13 6 C8.71 5.67 4.42 5.34 0 5 C0 3.35 0 1.7 0 0 Z " fill="#FAECED" transform="translate(19,84)"/>
<path d="M0 0 C1.98 0 3.96 0 6 0 C6 2.31 6 4.62 6 7 C8.31 7 10.62 7 13 7 C13 8.65 13 10.3 13 12 C10.69 12 8.38 12 6 12 C6.33 16.95 6.66 21.9 7 27 C8.98 27.33 10.96 27.66 13 28 C13 29.32 13 30.64 13 32 C9.95016004 33.52491998 7.3576631 33.23562548 4 33 C1.89970151 31.4580963 1.10187616 30.59613987 0.65942383 28.00708008 C0.67513428 27.26868896 0.69084473 26.53029785 0.70703125 25.76953125 C0.71669922 24.96708984 0.72636719 24.16464844 0.73632812 23.33789062 C0.76146484 22.50451172 0.78660156 21.67113281 0.8125 20.8125 C0.82603516 19.96751953 0.83957031 19.12253906 0.85351562 18.25195312 C0.88884201 16.16769616 0.94264861 14.08376723 1 12 C-0.32 12 -1.64 12 -3 12 C-3 10.35 -3 8.7 -3 7 C-2.01 7 -1.02 7 0 7 C0 4.69 0 2.38 0 0 Z " fill="#FAEEEE" transform="translate(146,77)"/>
<path d="M0 0 C2.4375 1.5625 2.4375 1.5625 4 4 C4.59677999 8.10286241 4.38925759 10.26819573 2.4375 13.9375 C0 16 0 16 -3.5 16.625 C-7 16 -7 16 -9.4375 13.9375 C-11.38925759 10.26819573 -11.59677999 8.10286241 -11 4 C-8.11188513 -0.5054592 -5.11821063 -0.73117295 0 0 Z " fill="#CB222F" transform="translate(60,89)"/>
<path d="M0 0 C2.32941903 1.24235681 2.78859023 2.33101841 3.5703125 4.8046875 C4.02367188 6.98905542 4.21190941 8.77711355 4 11 C1.58250724 14.5163531 0.12803728 15.76978831 -4.0625 16.625 C-7 16 -7 16 -9.375 13.9375 C-11.40553614 10.26691544 -11.60190112 8.13807018 -11 4 C-8.10582692 -0.51491 -5.12365602 -0.65210168 0 0 Z " fill="#CB212E" transform="translate(178,89)"/>
<path d="M0 0 C0 0.33 0 0.66 0 1 C-1.0725 1.04125 -2.145 1.0825 -3.25 1.125 C-7.1165499 1.64281146 -7.1165499 1.64281146 -9.1875 4.5 C-11.41267335 8.79688648 -11.66122623 12.11349768 -11.75 16.875 C-11.77964844 17.65875 -11.80929688 18.4425 -11.83984375 19.25 C-11.909946 21.16612807 -11.95730658 23.08306537 -12 25 C-13.65 25 -15.3 25 -17 25 C-17 17.08 -17 9.16 -17 1 C-15.35 1 -13.7 1 -12 1 C-12 1.66 -12 2.32 -12 3 C-11.34 3 -10.68 3 -10 3 C-10 2.34 -10 1.68 -10 1 C-6.78548731 -0.60725635 -3.56387464 -0.05748185 0 0 Z " fill="#FCF5F5" transform="translate(92,84)"/>
<path d="M0 0 C2.44646911 3.66970366 2.14860884 5.17442537 1.8125 9.5 C1.73644531 10.6446875 1.66039062 11.789375 1.58203125 12.96875 C1 16 1 16 -0.30078125 17.96875 C-2 19 -2 19 -4.1875 18.6875 C-4.785625 18.460625 -5.38375 18.23375 -6 18 C-5.98839844 17.14535156 -5.97679687 16.29070312 -5.96484375 15.41015625 C-5.95582031 14.30542969 -5.94679687 13.20070313 -5.9375 12.0625 C-5.92589844 10.96035156 -5.91429687 9.85820313 -5.90234375 8.72265625 C-5.68737429 6.08552366 -5.68737429 6.08552366 -7 5 C-7 9.62 -7 14.24 -7 19 C-7.33 19 -7.66 19 -8 19 C-8 14.05 -8 9.1 -8 4 C-5.36 4 -2.72 4 0 4 C0 2.68 0 1.36 0 0 Z " fill="#CC2934" transform="translate(160,85)"/>
<path d="M0 0 C1.37478516 0.01740234 1.37478516 0.01740234 2.77734375 0.03515625 C3.69644531 0.04417969 4.61554688 0.05320312 5.5625 0.0625 C6.27277344 0.07410156 6.98304688 0.08570312 7.71484375 0.09765625 C7.83984375 2.47265625 7.83984375 2.47265625 7.71484375 5.09765625 C5.71484375 7.09765625 5.71484375 7.09765625 3.8046875 7.328125 C-2.17404514 7.20876736 -2.17404514 7.20876736 -3.28515625 6.09765625 C-3.41015625 3.59765625 -3.41015625 3.59765625 -3.28515625 1.09765625 C-2.28515625 0.09765625 -2.28515625 0.09765625 0 0 Z " fill="#CB2230" transform="translate(126.28515625,97.90234375)"/>
<path d="M0 0 C1.258125 -0.04125 2.51625 -0.0825 3.8125 -0.125 C4.52019531 -0.14820312 5.22789062 -0.17140625 5.95703125 -0.1953125 C8 0 8 0 11 2 C11 2.99 11 3.98 11 5 C9.37536158 5.05395478 7.75021459 5.09277195 6.125 5.125 C5.22007812 5.14820312 4.31515625 5.17140625 3.3828125 5.1953125 C1 5 1 5 -1 3 C-0.67 2.01 -0.34 1.02 0 0 Z " fill="#CC2A35" transform="translate(123,89)"/>
</svg>
